# MagicaVoxel @ Ephtracy

# group
g Obj_CubicPillar

# material
mtllib Obj_CubicPillar.mtl
usemtl palette

# normals
vn -1 0 0
vn 1 0 0
vn 0 0 1
vn 0 0 -1
vn 0 -1 0
vn 0 1 0

# texcoords
vt 0.787109 0.5
vt 0.978516 0.5

# verts
v -5 0 5
v -5 0 -5
v -5 2 5
v -5 2 1
v -5 2 -1
v -5 2 -5
v -5 3 5
v -5 3 1
v -5 3 -1
v -5 3 -5
v -5 4 4
v -5 4 2
v -5 4 -2
v -5 4 -4
v -5 6 2
v -5 6 -2
v -5 7 2
v -5 7 -2
v -5 9 4
v -5 9 2
v -5 9 -2
v -5 9 -4
v -5 10 5
v -5 10 -5
v -4 2 4
v -4 2 1
v -4 2 -1
v -4 2 -4
v -4 3 4
v -4 3 1
v -4 3 -1
v -4 3 -4
v -4 4 4
v -4 4 2
v -4 4 -2
v -4 4 -4
v -4 6 2
v -4 6 -2
v -4 7 2
v -4 7 -2
v -4 9 4
v -4 9 2
v -4 9 -2
v -4 9 -4
v -3 9 3
v -3 9 1
v -3 9 -1
v -3 9 -3
v -3 10 3
v -3 10 1
v -3 10 -1
v -3 10 -3
v -2 4 5
v -2 4 4
v -2 4 -4
v -2 4 -5
v -2 6 5
v -2 6 4
v -2 7 5
v -2 7 4
v -2 9 5
v -2 9 4
v -2 9 -4
v -2 9 -5
v -1 2 5
v -1 2 4
v -1 2 -4
v -1 2 -5
v -1 3 5
v -1 3 4
v -1 3 -4
v -1 3 -5
v -1 9 4
v -1 9 3
v -1 9 2
v -1 9 1
v -1 9 -1
v -1 9 -2
v -1 9 -3
v -1 9 -4
v -1 10 4
v -1 10 3
v -1 10 2
v -1 10 1
v -1 10 -1
v -1 10 -2
v -1 10 -3
v -1 10 -4
v 2 8 2
v 2 8 -2
v 2 9 1
v 2 9 -1
v 2 10 2
v 2 10 1
v 2 10 -1
v 2 10 -2
v 4 4 5
v 4 4 4
v 4 4 -4
v 4 4 -5
v 4 9 5
v 4 9 4
v 4 9 1
v 4 9 -1
v 4 9 -4
v 4 9 -5
v 4 10 4
v 4 10 1
v 4 10 -1
v 4 10 -4
v -4 4 5
v -4 4 4
v -4 4 -4
v -4 4 -5
v -4 9 5
v -4 9 4
v -4 9 1
v -4 9 -1
v -4 9 -4
v -4 9 -5
v -4 10 4
v -4 10 1
v -4 10 -1
v -4 10 -4
v -2 8 2
v -2 8 -2
v -2 9 1
v -2 9 -1
v -2 10 2
v -2 10 1
v -2 10 -1
v -2 10 -2
v 1 2 5
v 1 2 4
v 1 2 -4
v 1 2 -5
v 1 3 5
v 1 3 4
v 1 3 -4
v 1 3 -5
v 1 9 4
v 1 9 3
v 1 9 2
v 1 9 1
v 1 9 -1
v 1 9 -2
v 1 9 -3
v 1 9 -4
v 1 10 4
v 1 10 3
v 1 10 2
v 1 10 1
v 1 10 -1
v 1 10 -2
v 1 10 -3
v 1 10 -4
v 2 4 5
v 2 4 4
v 2 4 -4
v 2 4 -5
v 2 6 5
v 2 6 4
v 2 7 5
v 2 7 4
v 2 9 5
v 2 9 4
v 2 9 -4
v 2 9 -5
v 3 9 3
v 3 9 1
v 3 9 -1
v 3 9 -3
v 3 10 3
v 3 10 1
v 3 10 -1
v 3 10 -3
v 4 2 4
v 4 2 1
v 4 2 -1
v 4 2 -4
v 4 3 4
v 4 3 1
v 4 3 -1
v 4 3 -4
v 4 4 4
v 4 4 2
v 4 4 -2
v 4 4 -4
v 4 9 4
v 4 9 2
v 4 9 -2
v 4 9 -4
v 5 0 5
v 5 0 -5
v 5 2 5
v 5 2 1
v 5 2 -1
v 5 2 -5
v 5 3 5
v 5 3 1
v 5 3 -1
v 5 3 -5
v 5 4 4
v 5 4 2
v 5 4 -2
v 5 4 -4
v 5 9 4
v 5 9 2
v 5 9 -2
v 5 9 -4
v 5 10 5
v 5 10 -5
v -5 0 5
v -5 2 5
v -5 3 5
v -5 10 5
v -4 4 5
v -4 9 5
v -2 4 5
v -2 6 5
v -2 7 5
v -2 9 5
v -1 2 5
v -1 3 5
v 1 2 5
v 1 3 5
v 2 4 5
v 2 6 5
v 2 7 5
v 2 9 5
v 4 4 5
v 4 9 5
v 5 0 5
v 5 2 5
v 5 3 5
v 5 10 5
v -4 2 4
v -4 3 4
v -4 4 4
v -4 9 4
v -2 4 4
v -2 6 4
v -2 7 4
v -2 9 4
v -1 2 4
v -1 3 4
v 1 2 4
v 1 3 4
v 2 4 4
v 2 6 4
v 2 7 4
v 2 9 4
v 4 2 4
v 4 3 4
v 4 4 4
v 4 9 4
v -3 9 3
v -3 10 3
v -1 9 3
v -1 10 3
v 1 9 3
v 1 10 3
v 3 9 3
v 3 10 3
v -5 4 2
v -5 6 2
v -5 7 2
v -5 9 2
v -4 4 2
v -4 6 2
v -4 7 2
v -4 9 2
v 4 4 2
v 4 9 2
v 5 4 2
v 5 9 2
v -5 2 1
v -5 3 1
v -4 2 1
v -4 3 1
v -4 9 1
v -4 10 1
v -3 9 1
v -3 10 1
v -2 9 1
v -2 10 1
v -1 9 1
v -1 10 1
v 1 9 1
v 1 10 1
v 2 9 1
v 2 10 1
v 3 9 1
v 3 10 1
v 4 2 1
v 4 3 1
v 4 9 1
v 4 10 1
v 5 2 1
v 5 3 1
v -2 8 -2
v -2 10 -2
v -1 9 -2
v -1 10 -2
v 1 9 -2
v 1 10 -2
v 2 8 -2
v 2 10 -2
v -5 4 -4
v -5 9 -4
v -4 4 -4
v -4 9 -4
v -4 10 -4
v -1 9 -4
v -1 10 -4
v 1 9 -4
v 1 10 -4
v 4 4 -4
v 4 9 -4
v 4 10 -4
v 5 4 -4
v 5 9 -4
v -5 4 4
v -5 9 4
v -4 4 4
v -4 9 4
v -4 10 4
v -1 9 4
v -1 10 4
v 1 9 4
v 1 10 4
v 4 4 4
v 4 9 4
v 4 10 4
v 5 4 4
v 5 9 4
v -2 8 2
v -2 10 2
v -1 9 2
v -1 10 2
v 1 9 2
v 1 10 2
v 2 8 2
v 2 10 2
v -5 2 -1
v -5 3 -1
v -4 2 -1
v -4 3 -1
v -4 9 -1
v -4 10 -1
v -3 9 -1
v -3 10 -1
v -2 9 -1
v -2 10 -1
v -1 9 -1
v -1 10 -1
v 1 9 -1
v 1 10 -1
v 2 9 -1
v 2 10 -1
v 3 9 -1
v 3 10 -1
v 4 2 -1
v 4 3 -1
v 4 9 -1
v 4 10 -1
v 5 2 -1
v 5 3 -1
v -5 4 -2
v -5 6 -2
v -5 7 -2
v -5 9 -2
v -4 4 -2
v -4 6 -2
v -4 7 -2
v -4 9 -2
v 4 4 -2
v 4 9 -2
v 5 4 -2
v 5 9 -2
v -3 9 -3
v -3 10 -3
v -1 9 -3
v -1 10 -3
v 1 9 -3
v 1 10 -3
v 3 9 -3
v 3 10 -3
v -4 2 -4
v -4 3 -4
v -4 4 -4
v -4 9 -4
v -2 4 -4
v -2 9 -4
v -1 2 -4
v -1 3 -4
v 1 2 -4
v 1 3 -4
v 2 4 -4
v 2 9 -4
v 4 2 -4
v 4 3 -4
v 4 4 -4
v 4 9 -4
v -5 0 -5
v -5 2 -5
v -5 3 -5
v -5 10 -5
v -4 4 -5
v -4 9 -5
v -2 4 -5
v -2 9 -5
v -1 2 -5
v -1 3 -5
v 1 2 -5
v 1 3 -5
v 2 4 -5
v 2 9 -5
v 4 4 -5
v 4 9 -5
v 5 0 -5
v 5 2 -5
v 5 3 -5
v 5 10 -5
v -5 0 5
v 5 0 5
v -5 0 -5
v 5 0 -5
v -5 3 5
v -1 3 5
v 1 3 5
v 5 3 5
v -4 3 4
v -1 3 4
v 1 3 4
v 4 3 4
v -5 3 1
v -4 3 1
v 4 3 1
v 5 3 1
v -5 3 -1
v -4 3 -1
v 4 3 -1
v 5 3 -1
v -4 3 -4
v -1 3 -4
v 1 3 -4
v 4 3 -4
v -5 3 -5
v -1 3 -5
v 1 3 -5
v 5 3 -5
v -2 7 5
v 2 7 5
v -2 7 4
v 2 7 4
v -5 7 2
v -4 7 2
v -5 7 -2
v -4 7 -2
v -4 9 5
v -2 9 5
v 2 9 5
v 4 9 5
v -5 9 4
v -4 9 4
v -2 9 4
v 2 9 4
v 4 9 4
v 5 9 4
v -5 9 2
v -4 9 2
v -1 9 2
v 1 9 2
v 4 9 2
v 5 9 2
v -2 9 1
v -1 9 1
v 1 9 1
v 2 9 1
v -2 9 -1
v -1 9 -1
v 1 9 -1
v 2 9 -1
v -5 9 -2
v -4 9 -2
v -1 9 -2
v 1 9 -2
v 4 9 -2
v 5 9 -2
v -5 9 -4
v -4 9 -4
v -2 9 -4
v 2 9 -4
v 4 9 -4
v 5 9 -4
v -4 9 -5
v -2 9 -5
v 2 9 -5
v 4 9 -5
v -5 2 5
v -1 2 5
v 1 2 5
v 5 2 5
v -4 2 4
v -1 2 4
v 1 2 4
v 4 2 4
v -5 2 1
v -4 2 1
v 4 2 1
v 5 2 1
v -5 2 -1
v -4 2 -1
v 4 2 -1
v 5 2 -1
v -4 2 -4
v -1 2 -4
v 1 2 -4
v 4 2 -4
v -5 2 -5
v -1 2 -5
v 1 2 -5
v 5 2 -5
v -4 4 5
v -2 4 5
v 2 4 5
v 4 4 5
v -5 4 4
v -4 4 4
v -2 4 4
v 2 4 4
v 4 4 4
v 5 4 4
v -5 4 2
v -4 4 2
v 4 4 2
v 5 4 2
v -5 4 -2
v -4 4 -2
v 4 4 -2
v 5 4 -2
v -5 4 -4
v -4 4 -4
v -2 4 -4
v 2 4 -4
v 4 4 -4
v 5 4 -4
v -4 4 -5
v -2 4 -5
v 2 4 -5
v 4 4 -5
v -2 6 5
v 2 6 5
v -2 6 4
v 2 6 4
v -5 6 2
v -4 6 2
v -5 6 -2
v -4 6 -2
v -2 8 2
v 2 8 2
v -2 8 -2
v 2 8 -2
v -4 9 4
v -1 9 4
v 1 9 4
v 4 9 4
v -3 9 3
v -1 9 3
v 1 9 3
v 3 9 3
v -4 9 1
v -3 9 1
v 3 9 1
v 4 9 1
v -4 9 -1
v -3 9 -1
v 3 9 -1
v 4 9 -1
v -3 9 -3
v -1 9 -3
v 1 9 -3
v 3 9 -3
v -4 9 -4
v -1 9 -4
v 1 9 -4
v 4 9 -4
v -5 10 5
v 5 10 5
v -4 10 4
v -1 10 4
v 1 10 4
v 4 10 4
v -3 10 3
v -1 10 3
v 1 10 3
v 3 10 3
v -2 10 2
v -1 10 2
v 1 10 2
v 2 10 2
v -4 10 1
v -3 10 1
v -2 10 1
v -1 10 1
v 1 10 1
v 2 10 1
v 3 10 1
v 4 10 1
v -4 10 -1
v -3 10 -1
v -2 10 -1
v -1 10 -1
v 1 10 -1
v 2 10 -1
v 3 10 -1
v 4 10 -1
v -2 10 -2
v -1 10 -2
v 1 10 -2
v 2 10 -2
v -3 10 -3
v -1 10 -3
v 1 10 -3
v 3 10 -3
v -4 10 -4
v -1 10 -4
v 1 10 -4
v 4 10 -4
v -5 10 -5
v 5 10 -5

# faces
f 3/2/1 2/2/1 1/2/1
f 4/2/1 2/2/1 3/2/1
f 5/2/1 2/2/1 4/2/1
f 6/2/1 2/2/1 5/2/1
f 8/2/1 5/2/1 4/2/1
f 9/2/1 5/2/1 8/2/1
f 11/2/1 8/2/1 7/2/1
f 11/2/1 10/2/1 9/2/1
f 11/2/1 9/2/1 8/2/1
f 12/2/1 10/2/1 11/2/1
f 13/2/1 10/2/1 12/2/1
f 14/2/1 10/2/1 13/2/1
f 15/2/1 13/2/1 12/2/1
f 16/2/1 13/2/1 15/2/1
f 19/2/1 11/2/1 7/2/1
f 20/2/1 18/2/1 17/2/1
f 21/2/1 18/2/1 20/2/1
f 22/2/1 10/2/1 14/2/1
f 23/2/1 19/2/1 7/2/1
f 23/2/1 22/2/1 21/2/1
f 23/2/1 21/2/1 20/2/1
f 23/2/1 20/2/1 19/2/1
f 24/2/1 10/2/1 22/2/1
f 24/2/1 22/2/1 23/2/1
f 29/1/1 26/1/1 25/1/1
f 30/1/1 26/1/1 29/1/1
f 31/1/1 28/1/1 27/1/1
f 32/1/1 28/1/1 31/1/1
f 37/1/1 34/1/1 33/1/1
f 38/1/1 36/1/1 35/1/1
f 39/1/1 37/1/1 33/1/1
f 39/1/1 38/1/1 37/1/1
f 40/1/1 36/1/1 38/1/1
f 40/1/1 38/1/1 39/1/1
f 41/1/1 39/1/1 33/1/1
f 42/1/1 39/1/1 41/1/1
f 43/1/1 36/1/1 40/1/1
f 44/1/1 36/1/1 43/1/1
f 49/2/1 46/2/1 45/2/1
f 50/2/1 46/2/1 49/2/1
f 51/2/1 48/2/1 47/2/1
f 52/2/1 48/2/1 51/2/1
f 57/2/1 54/2/1 53/2/1
f 58/2/1 54/2/1 57/2/1
f 61/2/1 60/2/1 59/2/1
f 62/2/1 60/2/1 61/2/1
f 63/2/1 56/2/1 55/2/1
f 64/2/1 56/2/1 63/2/1
f 69/2/1 66/2/1 65/2/1
f 70/2/1 66/2/1 69/2/1
f 71/2/1 68/2/1 67/2/1
f 72/2/1 68/2/1 71/2/1
f 81/2/1 74/2/1 73/2/1
f 82/2/1 74/2/1 81/2/1
f 83/2/1 76/2/1 75/2/1
f 84/2/1 76/2/1 83/2/1
f 85/2/1 78/2/1 77/2/1
f 86/2/1 78/2/1 85/2/1
f 87/2/1 80/2/1 79/2/1
f 88/2/1 80/2/1 87/2/1
f 91/2/1 90/2/1 89/2/1
f 92/2/1 90/2/1 91/2/1
f 93/2/1 91/2/1 89/2/1
f 94/2/1 91/2/1 93/2/1
f 95/2/1 90/2/1 92/2/1
f 96/2/1 90/2/1 95/2/1
f 101/2/1 98/2/1 97/2/1
f 102/2/1 98/2/1 101/2/1
f 105/2/1 100/2/1 99/2/1
f 106/2/1 100/2/1 105/2/1
f 107/2/1 103/2/1 102/2/1
f 108/2/1 103/2/1 107/2/1
f 109/2/1 105/2/1 104/2/1
f 110/2/1 105/2/1 109/2/1
f 111/2/2 112/2/2 115/2/2
f 115/2/2 112/2/2 116/2/2
f 113/2/2 114/2/2 119/2/2
f 119/2/2 114/2/2 120/2/2
f 116/2/2 117/2/2 121/2/2
f 121/2/2 117/2/2 122/2/2
f 118/2/2 119/2/2 123/2/2
f 123/2/2 119/2/2 124/2/2
f 125/2/2 126/2/2 127/2/2
f 127/2/2 126/2/2 128/2/2
f 125/2/2 127/2/2 129/2/2
f 129/2/2 127/2/2 130/2/2
f 128/2/2 126/2/2 131/2/2
f 131/2/2 126/2/2 132/2/2
f 133/2/2 134/2/2 137/2/2
f 137/2/2 134/2/2 138/2/2
f 135/2/2 136/2/2 139/2/2
f 139/2/2 136/2/2 140/2/2
f 141/2/2 142/2/2 149/2/2
f 149/2/2 142/2/2 150/2/2
f 143/2/2 144/2/2 151/2/2
f 151/2/2 144/2/2 152/2/2
f 145/2/2 146/2/2 153/2/2
f 153/2/2 146/2/2 154/2/2
f 147/2/2 148/2/2 155/2/2
f 155/2/2 148/2/2 156/2/2
f 157/2/2 158/2/2 161/2/2
f 161/2/2 158/2/2 162/2/2
f 163/2/2 164/2/2 165/2/2
f 165/2/2 164/2/2 166/2/2
f 159/2/2 160/2/2 167/2/2
f 167/2/2 160/2/2 168/2/2
f 169/2/2 170/2/2 173/2/2
f 173/2/2 170/2/2 174/2/2
f 171/2/2 172/2/2 175/2/2
f 175/2/2 172/2/2 176/2/2
f 177/1/2 178/1/2 181/1/2
f 181/1/2 178/1/2 182/1/2
f 179/1/2 180/1/2 183/1/2
f 183/1/2 180/1/2 184/1/2
f 185/1/2 186/1/2 189/1/2
f 189/1/2 186/1/2 190/1/2
f 187/1/2 188/1/2 191/1/2
f 191/1/2 188/1/2 192/1/2
f 193/2/2 194/2/2 195/2/2
f 195/2/2 194/2/2 196/2/2
f 196/2/2 194/2/2 197/2/2
f 197/2/2 194/2/2 198/2/2
f 196/2/2 197/2/2 200/2/2
f 200/2/2 197/2/2 201/2/2
f 199/2/2 200/2/2 203/2/2
f 201/2/2 202/2/2 203/2/2
f 200/2/2 201/2/2 203/2/2
f 203/2/2 202/2/2 204/2/2
f 204/2/2 202/2/2 205/2/2
f 205/2/2 202/2/2 206/2/2
f 199/2/2 203/2/2 207/2/2
f 204/2/2 205/2/2 208/2/2
f 208/2/2 205/2/2 209/2/2
f 206/2/2 202/2/2 210/2/2
f 208/2/2 209/2/2 211/2/2
f 209/2/2 210/2/2 211/2/2
f 199/2/2 207/2/2 211/2/2
f 207/2/2 208/2/2 211/2/2
f 210/2/2 202/2/2 212/2/2
f 211/2/2 210/2/2 212/2/2
f 217/2/3 216/2/3 215/2/3
f 218/2/3 216/2/3 217/2/3
f 219/2/3 217/2/3 215/2/3
f 222/2/3 216/2/3 218/2/3
f 223/2/3 214/2/3 213/2/3
f 224/2/3 220/2/3 219/2/3
f 224/2/3 219/2/3 215/2/3
f 225/2/3 223/2/3 213/2/3
f 225/2/3 224/2/3 223/2/3
f 226/2/3 220/2/3 224/2/3
f 226/2/3 224/2/3 225/2/3
f 227/2/3 220/2/3 226/2/3
f 228/2/3 220/2/3 227/2/3
f 229/2/3 222/2/3 221/2/3
f 230/2/3 216/2/3 222/2/3
f 230/2/3 222/2/3 229/2/3
f 231/2/3 227/2/3 226/2/3
f 232/2/3 216/2/3 230/2/3
f 233/2/3 225/2/3 213/2/3
f 234/2/3 225/2/3 233/2/3
f 235/2/3 231/2/3 226/2/3
f 235/2/3 232/2/3 231/2/3
f 236/2/3 216/2/3 232/2/3
f 236/2/3 232/2/3 235/2/3
f 241/1/3 240/1/3 239/1/3
f 242/1/3 240/1/3 241/1/3
f 243/1/3 240/1/3 242/1/3
f 244/1/3 240/1/3 243/1/3
f 245/1/3 238/1/3 237/1/3
f 246/1/3 238/1/3 245/1/3
f 250/1/3 243/1/3 242/1/3
f 251/1/3 243/1/3 250/1/3
f 253/1/3 248/1/3 247/1/3
f 254/1/3 248/1/3 253/1/3
f 255/1/3 252/1/3 251/1/3
f 255/1/3 250/1/3 249/1/3
f 255/1/3 251/1/3 250/1/3
f 256/1/3 252/1/3 255/1/3
f 259/2/3 258/2/3 257/2/3
f 260/2/3 258/2/3 259/2/3
f 263/2/3 262/2/3 261/2/3
f 264/2/3 262/2/3 263/2/3
f 269/2/3 266/2/3 265/2/3
f 270/2/3 266/2/3 269/2/3
f 271/2/3 268/2/3 267/2/3
f 272/2/3 268/2/3 271/2/3
f 275/2/3 274/2/3 273/2/3
f 276/2/3 274/2/3 275/2/3
f 279/2/3 278/2/3 277/2/3
f 280/2/3 278/2/3 279/2/3
f 283/2/3 282/2/3 281/2/3
f 284/2/3 282/2/3 283/2/3
f 287/2/3 286/2/3 285/2/3
f 288/2/3 286/2/3 287/2/3
f 291/2/3 290/2/3 289/2/3
f 292/2/3 290/2/3 291/2/3
f 297/2/3 294/2/3 293/2/3
f 298/2/3 294/2/3 297/2/3
f 299/2/3 296/2/3 295/2/3
f 300/2/3 296/2/3 299/2/3
f 303/2/3 302/2/3 301/2/3
f 304/2/3 302/2/3 303/2/3
f 305/2/3 303/2/3 301/2/3
f 307/2/3 305/2/3 301/2/3
f 307/2/3 306/2/3 305/2/3
f 308/2/3 306/2/3 307/2/3
f 311/2/3 310/2/3 309/2/3
f 312/2/3 310/2/3 311/2/3
f 314/2/3 313/2/3 312/2/3
f 315/2/3 313/2/3 314/2/3
f 319/2/3 317/2/3 316/2/3
f 320/2/3 317/2/3 319/2/3
f 321/2/3 319/2/3 318/2/3
f 322/2/3 319/2/3 321/2/3
f 323/2/4 324/2/4 325/2/4
f 325/2/4 324/2/4 326/2/4
f 326/2/4 327/2/4 328/2/4
f 328/2/4 327/2/4 329/2/4
f 330/2/4 331/2/4 333/2/4
f 333/2/4 331/2/4 334/2/4
f 332/2/4 333/2/4 335/2/4
f 335/2/4 333/2/4 336/2/4
f 337/2/4 338/2/4 339/2/4
f 339/2/4 338/2/4 340/2/4
f 337/2/4 339/2/4 341/2/4
f 337/2/4 341/2/4 343/2/4
f 341/2/4 342/2/4 343/2/4
f 343/2/4 342/2/4 344/2/4
f 345/2/4 346/2/4 347/2/4
f 347/2/4 346/2/4 348/2/4
f 349/2/4 350/2/4 351/2/4
f 351/2/4 350/2/4 352/2/4
f 353/2/4 354/2/4 355/2/4
f 355/2/4 354/2/4 356/2/4
f 357/2/4 358/2/4 359/2/4
f 359/2/4 358/2/4 360/2/4
f 361/2/4 362/2/4 365/2/4
f 365/2/4 362/2/4 366/2/4
f 363/2/4 364/2/4 367/2/4
f 367/2/4 364/2/4 368/2/4
f 369/2/4 370/2/4 373/2/4
f 373/2/4 370/2/4 374/2/4
f 371/2/4 372/2/4 375/2/4
f 375/2/4 372/2/4 376/2/4
f 377/2/4 378/2/4 379/2/4
f 379/2/4 378/2/4 380/2/4
f 381/2/4 382/2/4 383/2/4
f 383/2/4 382/2/4 384/2/4
f 385/2/4 386/2/4 387/2/4
f 387/2/4 386/2/4 388/2/4
f 391/1/4 392/1/4 393/1/4
f 393/1/4 392/1/4 394/1/4
f 389/1/4 390/1/4 395/1/4
f 395/1/4 390/1/4 396/1/4
f 397/1/4 398/1/4 401/1/4
f 401/1/4 398/1/4 402/1/4
f 399/1/4 400/1/4 403/1/4
f 403/1/4 400/1/4 404/1/4
f 407/2/4 408/2/4 409/2/4
f 409/2/4 408/2/4 410/2/4
f 407/2/4 409/2/4 411/2/4
f 410/2/4 408/2/4 412/2/4
f 405/2/4 406/2/4 413/2/4
f 411/2/4 412/2/4 414/2/4
f 407/2/4 411/2/4 414/2/4
f 405/2/4 413/2/4 415/2/4
f 413/2/4 414/2/4 415/2/4
f 414/2/4 412/2/4 416/2/4
f 415/2/4 414/2/4 416/2/4
f 416/2/4 412/2/4 417/2/4
f 412/2/4 408/2/4 418/2/4
f 417/2/4 412/2/4 418/2/4
f 416/2/4 417/2/4 419/2/4
f 418/2/4 408/2/4 420/2/4
f 405/2/4 415/2/4 421/2/4
f 421/2/4 415/2/4 422/2/4
f 419/2/4 420/2/4 423/2/4
f 416/2/4 419/2/4 423/2/4
f 420/2/4 408/2/4 424/2/4
f 423/2/4 420/2/4 424/2/4
f 427/2/5 426/2/5 425/2/5
f 428/2/5 426/2/5 427/2/5
f 433/2/5 430/2/5 429/2/5
f 434/2/5 430/2/5 433/2/5
f 435/2/5 432/2/5 431/2/5
f 436/2/5 432/2/5 435/2/5
f 437/2/5 433/2/5 429/2/5
f 438/2/5 433/2/5 437/2/5
f 439/2/5 432/2/5 436/2/5
f 440/2/5 432/2/5 439/2/5
f 445/2/5 442/2/5 441/2/5
f 448/2/5 444/2/5 443/2/5
f 449/2/5 446/2/5 445/2/5
f 449/2/5 445/2/5 441/2/5
f 450/2/5 446/2/5 449/2/5
f 451/2/5 448/2/5 447/2/5
f 452/2/5 444/2/5 448/2/5
f 452/2/5 448/2/5 451/2/5
f 455/2/5 454/2/5 453/2/5
f 456/2/5 454/2/5 455/2/5
f 459/2/5 458/2/5 457/2/5
f 460/2/5 458/2/5 459/2/5
f 466/2/5 462/2/5 461/2/5
f 467/2/5 462/2/5 466/2/5
f 468/2/5 464/2/5 463/2/5
f 469/2/5 464/2/5 468/2/5
f 471/2/5 466/2/5 465/2/5
f 472/2/5 466/2/5 471/2/5
f 475/2/5 470/2/5 469/2/5
f 476/2/5 470/2/5 475/2/5
f 478/2/5 474/2/5 473/2/5
f 479/2/5 474/2/5 478/2/5
f 481/2/5 478/2/5 477/2/5
f 481/2/5 480/2/5 479/2/5
f 481/2/5 479/2/5 478/2/5
f 482/2/5 480/2/5 481/2/5
f 483/2/5 480/2/5 482/2/5
f 484/2/5 480/2/5 483/2/5
f 487/2/5 483/2/5 482/2/5
f 488/2/5 483/2/5 487/2/5
f 491/2/5 486/2/5 485/2/5
f 492/2/5 486/2/5 491/2/5
f 495/2/5 490/2/5 489/2/5
f 496/2/5 490/2/5 495/2/5
f 497/2/5 493/2/5 492/2/5
f 498/2/5 493/2/5 497/2/5
f 499/2/5 495/2/5 494/2/5
f 500/2/5 495/2/5 499/2/5
f 501/2/6 502/2/6 505/2/6
f 505/2/6 502/2/6 506/2/6
f 503/2/6 504/2/6 507/2/6
f 507/2/6 504/2/6 508/2/6
f 501/2/6 505/2/6 509/2/6
f 509/2/6 505/2/6 510/2/6
f 508/2/6 504/2/6 511/2/6
f 511/2/6 504/2/6 512/2/6
f 513/2/6 514/2/6 517/2/6
f 515/2/6 516/2/6 520/2/6
f 517/2/6 518/2/6 521/2/6
f 513/2/6 517/2/6 521/2/6
f 521/2/6 518/2/6 522/2/6
f 519/2/6 520/2/6 523/2/6
f 520/2/6 516/2/6 524/2/6
f 523/2/6 520/2/6 524/2/6
f 525/2/6 526/2/6 530/2/6
f 530/2/6 526/2/6 531/2/6
f 527/2/6 528/2/6 532/2/6
f 532/2/6 528/2/6 533/2/6
f 529/2/6 530/2/6 535/2/6
f 535/2/6 530/2/6 536/2/6
f 533/2/6 534/2/6 537/2/6
f 537/2/6 534/2/6 538/2/6
f 539/2/6 540/2/6 543/2/6
f 543/2/6 540/2/6 544/2/6
f 541/2/6 542/2/6 547/2/6
f 547/2/6 542/2/6 548/2/6
f 544/2/6 545/2/6 549/2/6
f 549/2/6 545/2/6 550/2/6
f 546/2/6 547/2/6 551/2/6
f 551/2/6 547/2/6 552/2/6
f 553/2/6 554/2/6 555/2/6
f 555/2/6 554/2/6 556/2/6
f 557/2/6 558/2/6 559/2/6
f 559/2/6 558/2/6 560/2/6
f 561/1/6 562/1/6 563/1/6
f 563/1/6 562/1/6 564/1/6
f 565/1/6 566/1/6 569/1/6
f 569/1/6 566/1/6 570/1/6
f 567/1/6 568/1/6 571/1/6
f 571/1/6 568/1/6 572/1/6
f 565/1/6 569/1/6 573/1/6
f 573/1/6 569/1/6 574/1/6
f 572/1/6 568/1/6 575/1/6
f 575/1/6 568/1/6 576/1/6
f 577/1/6 578/1/6 581/1/6
f 579/1/6 580/1/6 584/1/6
f 581/1/6 582/1/6 585/1/6
f 577/1/6 581/1/6 585/1/6
f 585/1/6 582/1/6 586/1/6
f 583/1/6 584/1/6 587/1/6
f 584/1/6 580/1/6 588/1/6
f 587/1/6 584/1/6 588/1/6
f 589/2/6 590/2/6 591/2/6
f 591/2/6 590/2/6 592/2/6
f 592/2/6 590/2/6 593/2/6
f 593/2/6 590/2/6 594/2/6
f 592/2/6 593/2/6 596/2/6
f 596/2/6 593/2/6 597/2/6
f 595/2/6 596/2/6 599/2/6
f 597/2/6 598/2/6 599/2/6
f 596/2/6 597/2/6 599/2/6
f 599/2/6 598/2/6 600/2/6
f 600/2/6 598/2/6 601/2/6
f 601/2/6 598/2/6 602/2/6
f 589/2/6 591/2/6 603/2/6
f 595/2/6 599/2/6 604/2/6
f 604/2/6 599/2/6 605/2/6
f 600/2/6 601/2/6 606/2/6
f 606/2/6 601/2/6 607/2/6
f 602/2/6 598/2/6 608/2/6
f 608/2/6 598/2/6 609/2/6
f 594/2/6 590/2/6 610/2/6
f 606/2/6 607/2/6 611/2/6
f 609/2/6 610/2/6 611/2/6
f 608/2/6 609/2/6 611/2/6
f 589/2/6 603/2/6 611/2/6
f 607/2/6 608/2/6 611/2/6
f 604/2/6 605/2/6 611/2/6
f 605/2/6 606/2/6 611/2/6
f 603/2/6 604/2/6 611/2/6
f 611/2/6 610/2/6 612/2/6
f 612/2/6 610/2/6 613/2/6
f 613/2/6 610/2/6 614/2/6
f 614/2/6 610/2/6 615/2/6
f 615/2/6 610/2/6 616/2/6
f 616/2/6 610/2/6 617/2/6
f 610/2/6 590/2/6 618/2/6
f 617/2/6 610/2/6 618/2/6
f 612/2/6 613/2/6 619/2/6
f 614/2/6 615/2/6 620/2/6
f 620/2/6 615/2/6 621/2/6
f 616/2/6 617/2/6 622/2/6
f 620/2/6 621/2/6 623/2/6
f 621/2/6 622/2/6 623/2/6
f 612/2/6 619/2/6 623/2/6
f 619/2/6 620/2/6 623/2/6
f 623/2/6 622/2/6 624/2/6
f 624/2/6 622/2/6 625/2/6
f 622/2/6 617/2/6 626/2/6
f 625/2/6 622/2/6 626/2/6
f 589/2/6 611/2/6 627/2/6
f 624/2/6 625/2/6 628/2/6
f 628/2/6 625/2/6 629/2/6
f 618/2/6 590/2/6 630/2/6
f 589/2/6 627/2/6 631/2/6
f 629/2/6 630/2/6 631/2/6
f 628/2/6 629/2/6 631/2/6
f 627/2/6 628/2/6 631/2/6
f 630/2/6 590/2/6 632/2/6
f 631/2/6 630/2/6 632/2/6
