# MagicaVoxel @ Ephtracy

# group
g Tile_GrassType1

# material
mtllib Tile_GrassType1.mtl
usemtl palette

# normals
vn -1 0 0
vn 1 0 0
vn 0 0 1
vn 0 0 -1
vn 0 -1 0
vn 0 1 0

# texcoords
vt 0.224609 0.5
vt 0.310547 0.5
vt 0.341797 0.5
vt 0.583984 0.5
vt 0.591797 0.5
vt 0.927734 0.5

# verts
v -5 0 5
v -5 0 2
v -5 0 1
v -5 0 -5
v -5 1 3
v -5 1 2
v -5 1 1
v -5 1 -4
v -5 1 -5
v -5 2 3
v -5 2 2
v -5 2 -0
v -5 2 -1
v -5 2 -2
v -5 2 -3
v -5 2 -4
v -5 2 -5
v -5 3 5
v -5 3 4
v -5 3 3
v -5 3 2
v -5 3 -0
v -5 3 -1
v -5 3 -2
v -5 3 -3
v -5 3 -4
v -5 3 -5
v -5 4 4
v -5 4 3
v -5 4 2
v -5 4 1
v -5 4 -0
v -5 4 -1
v -5 4 -2
v -5 4 -3
v -5 4 -4
v -5 5 5
v -5 5 4
v -5 5 3
v -5 5 1
v -5 5 -0
v -5 5 -4
v -5 5 -5
v -5 6 5
v -5 6 4
v -5 6 1
v -5 6 -0
v -5 6 -3
v -5 6 -4
v -5 6 -5
v -5 7 5
v -5 7 4
v -5 7 -5
v -5 10 5
v -5 10 -5
v -4 2 -2
v -4 2 -3
v -4 3 2
v -4 3 -0
v -4 3 -2
v -4 3 -3
v -4 4 4
v -4 4 3
v -4 4 2
v -4 4 1
v -4 4 -0
v -4 5 4
v -4 5 3
v -4 5 1
v -4 5 -0
v -3 9 3
v -3 9 2
v -3 10 3
v -3 10 2
v -2 2 -4
v -2 2 -5
v -2 3 -4
v -2 3 -5
v -2 4 5
v -2 4 4
v -2 4 -4
v -2 4 -5
v -2 5 5
v -2 5 4
v -2 5 -4
v -2 5 -5
v -2 6 -4
v -2 6 -5
v -1 9 -2
v -1 9 -3
v -1 10 -2
v -1 10 -3
v 0 9 2
v 0 9 1
v 0 9 -0
v 0 10 2
v 0 10 1
v 0 10 -0
v 1 1 5
v 1 1 4
v 1 3 5
v 1 3 4
v 2 5 5
v 2 5 4
v 2 6 5
v 2 6 4
v 3 2 -4
v 3 2 -5
v 3 3 -4
v 3 3 -5
v 3 9 3
v 3 9 2
v 3 9 -0
v 3 9 -1
v 3 10 3
v 3 10 2
v 3 10 -0
v 3 10 -1
v 4 6 -4
v 4 6 -5
v 4 7 -4
v 4 7 -5
v 4 9 4
v 4 9 3
v 4 9 2
v 4 9 -0
v 4 9 -1
v 4 9 -4
v 4 10 4
v 4 10 3
v 4 10 2
v 4 10 -0
v 4 10 -1
v 4 10 -4
v -4 9 4
v -4 9 -3
v -4 10 4
v -4 10 -3
v -3 2 -4
v -3 2 -5
v -3 4 5
v -3 4 4
v -3 4 -4
v -3 4 -5
v -3 5 5
v -3 5 4
v -3 5 -4
v -3 5 -5
v -3 6 -4
v -3 6 -5
v -3 9 -3
v -3 9 -4
v -3 10 -3
v -3 10 -4
v -2 9 3
v -2 9 2
v -2 10 3
v -2 10 2
v 0 1 5
v 0 1 4
v 0 3 5
v 0 3 4
v 0 9 -2
v 0 9 -3
v 0 10 -2
v 0 10 -3
v 1 5 5
v 1 5 4
v 1 6 5
v 1 6 4
v 1 9 2
v 1 9 1
v 1 9 -0
v 1 10 2
v 1 10 1
v 1 10 -0
v 2 2 -4
v 2 2 -5
v 2 3 -4
v 2 3 -5
v 3 6 -4
v 3 6 -5
v 3 7 -4
v 3 7 -5
v 4 0 1
v 4 0 -0
v 4 1 -0
v 4 2 1
v 4 2 -0
v 4 3 -1
v 4 3 -2
v 4 4 -1
v 4 4 -2
v 5 0 5
v 5 0 4
v 5 0 1
v 5 0 -0
v 5 0 -5
v 5 1 5
v 5 1 4
v 5 1 -0
v 5 1 -1
v 5 1 -2
v 5 1 -4
v 5 1 -5
v 5 2 1
v 5 2 -0
v 5 2 -1
v 5 2 -2
v 5 2 -3
v 5 2 -4
v 5 2 -5
v 5 3 3
v 5 3 2
v 5 3 1
v 5 3 -0
v 5 3 -1
v 5 3 -2
v 5 3 -3
v 5 3 -4
v 5 3 -5
v 5 4 5
v 5 4 4
v 5 4 3
v 5 4 2
v 5 4 1
v 5 4 -1
v 5 4 -2
v 5 4 -3
v 5 4 -4
v 5 5 5
v 5 5 4
v 5 5 3
v 5 5 2
v 5 5 -1
v 5 5 -2
v 5 5 -3
v 5 6 5
v 5 6 4
v 5 6 3
v 5 6 2
v 5 6 -1
v 5 6 -2
v 5 6 -3
v 5 6 -4
v 5 7 5
v 5 7 4
v 5 7 -3
v 5 7 -4
v 5 7 -5
v 5 10 5
v 5 10 -5
v -5 0 5
v -5 3 5
v -5 5 5
v -5 6 5
v -5 7 5
v -5 10 5
v -4 0 5
v -4 1 5
v -4 2 5
v -4 3 5
v -4 4 5
v -4 5 5
v -4 6 5
v -4 7 5
v -3 0 5
v -3 1 5
v -3 2 5
v -3 3 5
v -3 4 5
v -3 5 5
v -3 6 5
v -2 1 5
v -2 2 5
v -2 4 5
v -2 5 5
v -2 6 5
v 0 1 5
v 0 3 5
v 1 1 5
v 1 3 5
v 1 5 5
v 1 6 5
v 2 1 5
v 2 2 5
v 2 3 5
v 2 4 5
v 2 5 5
v 2 6 5
v 3 1 5
v 3 2 5
v 3 3 5
v 3 4 5
v 3 5 5
v 4 0 5
v 4 1 5
v 4 2 5
v 4 4 5
v 4 5 5
v 4 6 5
v 4 7 5
v 5 0 5
v 5 1 5
v 5 4 5
v 5 5 5
v 5 6 5
v 5 7 5
v 5 10 5
v -3 4 4
v -3 5 4
v -2 4 4
v -2 5 4
v 0 1 4
v 0 3 4
v 1 1 4
v 1 3 4
v 1 5 4
v 1 6 4
v 2 5 4
v 2 6 4
v -5 4 3
v -5 5 3
v -4 4 3
v -4 5 3
v -3 9 3
v -3 10 3
v -2 9 3
v -2 10 3
v 3 9 3
v 3 10 3
v 4 9 3
v 4 10 3
v 0 9 2
v 0 10 2
v 1 9 2
v 1 10 2
v -5 3 -0
v -5 4 -0
v -5 5 -0
v -4 3 -0
v -4 4 -0
v -4 5 -0
v 3 9 -0
v 3 10 -0
v 4 0 -0
v 4 1 -0
v 4 2 -0
v 4 9 -0
v 4 10 -0
v 5 0 -0
v 5 1 -0
v 5 2 -0
v -1 9 -2
v -1 10 -2
v 0 9 -2
v 0 10 -2
v 4 3 -2
v 4 4 -2
v 5 3 -2
v 5 4 -2
v -5 2 -3
v -5 3 -3
v -4 2 -3
v -4 3 -3
v -4 9 -3
v -4 10 -3
v -3 9 -3
v -3 10 -3
v -3 9 -4
v -3 10 -4
v 4 9 -4
v 4 10 -4
v -5 4 4
v -5 5 4
v -4 4 4
v -4 5 4
v -4 9 4
v -4 10 4
v 4 9 4
v 4 10 4
v -5 3 2
v -5 4 2
v -4 3 2
v -4 4 2
v -3 9 2
v -3 10 2
v -2 9 2
v -2 10 2
v 3 9 2
v 3 10 2
v 4 9 2
v 4 10 2
v -5 4 1
v -5 5 1
v -4 4 1
v -4 5 1
v 4 0 1
v 4 2 1
v 5 0 1
v 5 2 1
v 0 9 -0
v 0 10 -0
v 1 9 -0
v 1 10 -0
v 3 9 -1
v 3 10 -1
v 4 3 -1
v 4 4 -1
v 4 9 -1
v 4 10 -1
v 5 3 -1
v 5 4 -1
v -5 2 -2
v -5 3 -2
v -4 2 -2
v -4 3 -2
v -1 9 -3
v -1 10 -3
v 0 9 -3
v 0 10 -3
v -3 2 -4
v -3 4 -4
v -3 5 -4
v -3 6 -4
v -2 2 -4
v -2 3 -4
v -2 4 -4
v -2 5 -4
v -2 6 -4
v 2 2 -4
v 2 3 -4
v 3 2 -4
v 3 3 -4
v 3 6 -4
v 3 7 -4
v 4 6 -4
v 4 7 -4
v -5 0 -5
v -5 1 -5
v -5 2 -5
v -5 3 -5
v -5 5 -5
v -5 6 -5
v -5 7 -5
v -5 10 -5
v -4 1 -5
v -4 2 -5
v -4 3 -5
v -4 5 -5
v -4 6 -5
v -4 7 -5
v -3 2 -5
v -3 4 -5
v -3 5 -5
v -3 6 -5
v -3 7 -5
v -2 2 -5
v -2 3 -5
v -2 4 -5
v -2 5 -5
v -2 6 -5
v -1 1 -5
v -1 2 -5
v -1 3 -5
v -1 4 -5
v -1 5 -5
v -1 6 -5
v 0 1 -5
v 0 2 -5
v 0 3 -5
v 0 5 -5
v 0 6 -5
v 1 1 -5
v 1 2 -5
v 1 3 -5
v 1 5 -5
v 1 6 -5
v 2 1 -5
v 2 2 -5
v 2 3 -5
v 2 5 -5
v 2 6 -5
v 2 7 -5
v 3 2 -5
v 3 3 -5
v 3 4 -5
v 3 5 -5
v 3 6 -5
v 3 7 -5
v 4 1 -5
v 4 2 -5
v 4 3 -5
v 4 4 -5
v 4 5 -5
v 4 6 -5
v 4 7 -5
v 5 0 -5
v 5 1 -5
v 5 2 -5
v 5 3 -5
v 5 7 -5
v 5 10 -5
v -5 0 5
v -4 0 5
v -3 0 5
v 4 0 5
v 5 0 5
v -4 0 4
v -3 0 4
v 4 0 4
v 5 0 4
v -5 0 2
v -4 0 2
v -5 0 1
v -4 0 1
v 4 0 1
v 5 0 1
v 4 0 -0
v 5 0 -0
v -5 0 -5
v 5 0 -5
v 4 2 1
v 5 2 1
v 4 2 -0
v 5 2 -0
v 0 3 5
v 1 3 5
v 0 3 4
v 1 3 4
v -5 3 -2
v -4 3 -2
v -5 3 -3
v -4 3 -3
v 2 3 -4
v 3 3 -4
v 2 3 -5
v 3 3 -5
v -5 4 2
v -4 4 2
v -5 4 1
v -4 4 1
v 4 4 -1
v 5 4 -1
v 4 4 -2
v 5 4 -2
v -3 4 -4
v -2 4 -4
v -3 4 -5
v -2 4 -5
v -3 5 5
v -2 5 5
v -5 5 4
v -4 5 4
v -3 5 4
v -2 5 4
v -5 5 3
v -4 5 3
v -5 5 1
v -4 5 1
v -5 5 -0
v -4 5 -0
v 1 6 5
v 2 6 5
v 1 6 4
v 2 6 4
v -3 6 -4
v -2 6 -4
v -3 6 -5
v -2 6 -5
v 3 7 -4
v 4 7 -4
v 3 7 -5
v 4 7 -5
v 0 1 5
v 1 1 5
v 0 1 4
v 1 1 4
v -5 2 -2
v -4 2 -2
v -5 2 -3
v -4 2 -3
v -3 2 -4
v -2 2 -4
v 2 2 -4
v 3 2 -4
v -3 2 -5
v -2 2 -5
v 2 2 -5
v 3 2 -5
v -5 3 2
v -4 3 2
v -5 3 -0
v -4 3 -0
v 4 3 -1
v 5 3 -1
v 4 3 -2
v 5 3 -2
v -3 4 5
v -2 4 5
v -5 4 4
v -4 4 4
v -3 4 4
v -2 4 4
v -5 4 3
v -4 4 3
v 1 5 5
v 2 5 5
v 1 5 4
v 2 5 4
v -3 5 -4
v -2 5 -4
v -3 5 -5
v -2 5 -5
v 3 6 -4
v 4 6 -4
v 3 6 -5
v 4 6 -5
v -4 9 4
v 4 9 4
v -3 9 3
v -2 9 3
v -1 9 3
v 0 9 3
v 3 9 3
v 4 9 3
v -3 9 2
v -2 9 2
v -1 9 2
v 0 9 2
v 1 9 2
v 2 9 2
v 3 9 2
v 4 9 2
v 0 9 1
v 1 9 1
v 2 9 1
v 3 9 1
v 0 9 -0
v 1 9 -0
v 3 9 -0
v 4 9 -0
v -2 9 -1
v -1 9 -1
v 2 9 -1
v 3 9 -1
v 4 9 -1
v -2 9 -2
v -1 9 -2
v 0 9 -2
v -4 9 -3
v -3 9 -3
v -1 9 -3
v 0 9 -3
v 2 9 -3
v 3 9 -3
v -3 9 -4
v 4 9 -4
v -5 10 5
v 5 10 5
v -4 10 4
v 4 10 4
v -3 10 3
v -2 10 3
v 3 10 3
v 4 10 3
v -3 10 2
v -2 10 2
v 0 10 2
v 1 10 2
v 3 10 2
v 4 10 2
v 0 10 1
v 1 10 1
v 0 10 -0
v 1 10 -0
v 3 10 -0
v 4 10 -0
v 3 10 -1
v 4 10 -1
v -1 10 -2
v 0 10 -2
v -4 10 -3
v -3 10 -3
v -1 10 -3
v 0 10 -3
v -4 10 -4
v -3 10 -4
v 4 10 -4
v -5 10 -5
v 5 10 -5

# faces
f 5/2/1 2/2/1 1/2/1
f 6/6/1 3/6/1 2/6/1
f 6/2/1 2/2/1 5/2/1
f 7/2/1 4/2/1 3/2/1
f 7/6/1 3/6/1 6/6/1
f 8/2/1 4/2/1 7/2/1
f 9/2/1 4/2/1 8/2/1
f 10/3/1 6/3/1 5/3/1
f 10/2/1 5/2/1 1/2/1
f 11/2/1 7/2/1 6/2/1
f 11/3/1 6/3/1 10/3/1
f 11/2/1 8/2/1 7/2/1
f 12/2/1 8/2/1 11/2/1
f 13/2/1 8/2/1 12/2/1
f 14/2/1 8/2/1 13/2/1
f 15/2/1 8/2/1 14/2/1
f 16/3/1 9/3/1 8/3/1
f 16/2/1 8/2/1 15/2/1
f 17/3/1 9/3/1 16/3/1
f 18/2/1 10/2/1 1/2/1
f 18/2/1 11/2/1 10/2/1
f 18/2/1 12/2/1 11/2/1
f 19/2/1 12/2/1 18/2/1
f 20/2/1 12/2/1 19/2/1
f 21/2/1 12/2/1 20/2/1
f 22/1/1 13/1/1 12/1/1
f 22/2/1 12/2/1 21/2/1
f 23/2/1 14/2/1 13/2/1
f 23/1/1 13/1/1 22/1/1
f 24/2/1 14/2/1 23/2/1
f 25/2/1 16/2/1 15/2/1
f 26/1/1 17/1/1 16/1/1
f 26/2/1 16/2/1 25/2/1
f 27/1/1 17/1/1 26/1/1
f 28/1/1 19/1/1 18/1/1
f 28/3/1 20/3/1 19/3/1
f 29/2/1 21/2/1 20/2/1
f 29/3/1 20/3/1 28/3/1
f 30/2/1 21/2/1 29/2/1
f 32/6/1 23/6/1 22/6/1
f 33/3/1 24/3/1 23/3/1
f 33/6/1 23/6/1 32/6/1
f 34/2/1 25/2/1 24/2/1
f 34/3/1 24/3/1 33/3/1
f 34/2/1 27/2/1 26/2/1
f 34/2/1 26/2/1 25/2/1
f 35/2/1 27/2/1 34/2/1
f 36/2/1 27/2/1 35/2/1
f 37/1/1 28/1/1 18/1/1
f 38/1/1 28/1/1 37/1/1
f 39/2/1 30/2/1 29/2/1
f 39/2/1 31/2/1 30/2/1
f 40/2/1 31/2/1 39/2/1
f 41/2/1 33/2/1 32/2/1
f 41/2/1 34/2/1 33/2/1
f 41/2/1 35/2/1 34/2/1
f 42/2/1 27/2/1 36/2/1
f 42/1/1 36/1/1 35/1/1
f 43/2/1 27/2/1 42/2/1
f 44/2/1 40/2/1 39/2/1
f 44/2/1 38/2/1 37/2/1
f 44/2/1 39/2/1 38/2/1
f 45/2/1 40/2/1 44/2/1
f 46/3/1 41/3/1 40/3/1
f 46/2/1 40/2/1 45/2/1
f 47/2/1 35/2/1 41/2/1
f 47/3/1 41/3/1 46/3/1
f 48/1/1 42/1/1 35/1/1
f 48/2/1 35/2/1 47/2/1
f 49/3/1 43/3/1 42/3/1
f 49/1/1 42/1/1 48/1/1
f 50/3/1 43/3/1 49/3/1
f 51/1/1 45/1/1 44/1/1
f 52/2/1 48/2/1 47/2/1
f 52/1/1 45/1/1 51/1/1
f 52/2/1 46/2/1 45/2/1
f 52/2/1 50/2/1 49/2/1
f 52/2/1 49/2/1 48/2/1
f 52/2/1 47/2/1 46/2/1
f 53/2/1 50/2/1 52/2/1
f 54/4/1 52/4/1 51/4/1
f 54/4/1 53/4/1 52/4/1
f 55/4/1 53/4/1 54/4/1
f 60/2/1 57/2/1 56/2/1
f 61/2/1 57/2/1 60/2/1
f 64/2/1 59/2/1 58/2/1
f 65/2/1 59/2/1 64/2/1
f 66/2/1 59/2/1 65/2/1
f 67/2/1 63/2/1 62/2/1
f 68/2/1 63/2/1 67/2/1
f 69/2/1 66/2/1 65/2/1
f 70/2/1 66/2/1 69/2/1
f 73/4/1 72/4/1 71/4/1
f 74/4/1 72/4/1 73/4/1
f 77/2/1 76/2/1 75/2/1
f 78/2/1 76/2/1 77/2/1
f 81/1/1 78/1/1 77/1/1
f 82/1/1 78/1/1 81/1/1
f 83/2/1 80/2/1 79/2/1
f 84/2/1 80/2/1 83/2/1
f 87/2/1 86/2/1 85/2/1
f 88/2/1 86/2/1 87/2/1
f 91/4/1 90/4/1 89/4/1
f 92/4/1 90/4/1 91/4/1
f 96/5/1 94/5/1 93/5/1
f 97/4/1 95/4/1 94/4/1
f 97/5/1 94/5/1 96/5/1
f 98/4/1 95/4/1 97/4/1
f 101/2/1 100/2/1 99/2/1
f 102/2/1 100/2/1 101/2/1
f 105/2/1 104/2/1 103/2/1
f 106/2/1 104/2/1 105/2/1
f 109/2/1 108/2/1 107/2/1
f 110/2/1 108/2/1 109/2/1
f 115/4/1 112/4/1 111/4/1
f 116/4/1 112/4/1 115/4/1
f 117/5/1 114/5/1 113/5/1
f 118/5/1 114/5/1 117/5/1
f 121/2/1 120/2/1 119/2/1
f 122/2/1 120/2/1 121/2/1
f 129/4/1 124/4/1 123/4/1
f 130/4/1 124/4/1 129/4/1
f 131/4/1 126/4/1 125/4/1
f 132/4/1 126/4/1 131/4/1
f 133/4/1 128/4/1 127/4/1
f 134/4/1 128/4/1 133/4/1
f 135/4/2 136/4/2 137/4/2
f 137/4/2 136/4/2 138/4/2
f 139/2/2 140/2/2 143/2/2
f 143/2/2 140/2/2 144/2/2
f 141/6/2 142/6/2 145/6/2
f 145/6/2 142/6/2 146/6/2
f 147/2/2 148/2/2 149/2/2
f 149/2/2 148/2/2 150/2/2
f 151/5/2 152/5/2 153/5/2
f 153/5/2 152/5/2 154/5/2
f 155/4/2 156/4/2 157/4/2
f 157/4/2 156/4/2 158/4/2
f 159/2/2 160/2/2 161/2/2
f 161/2/2 160/2/2 162/2/2
f 163/4/2 164/4/2 165/4/2
f 165/4/2 164/4/2 166/4/2
f 167/2/2 168/2/2 169/2/2
f 169/2/2 168/2/2 170/2/2
f 171/5/2 172/5/2 174/5/2
f 172/4/2 173/4/2 175/4/2
f 174/5/2 172/5/2 175/5/2
f 175/4/2 173/4/2 176/4/2
f 177/2/2 178/2/2 179/2/2
f 179/2/2 178/2/2 180/2/2
f 181/3/2 182/3/2 183/3/2
f 183/3/2 182/3/2 184/3/2
f 185/2/2 186/2/2 187/2/2
f 185/2/2 187/2/2 188/2/2
f 188/2/2 187/2/2 189/2/2
f 190/2/2 191/2/2 192/2/2
f 192/2/2 191/2/2 193/2/2
f 194/3/2 195/3/2 199/3/2
f 195/2/2 196/2/2 200/2/2
f 199/3/2 195/3/2 200/3/2
f 197/2/2 198/2/2 201/2/2
f 201/2/2 198/2/2 202/2/2
f 202/2/2 198/2/2 203/2/2
f 203/2/2 198/2/2 204/2/2
f 204/2/2 198/2/2 205/2/2
f 200/2/2 196/2/2 206/2/2
f 199/2/2 200/2/2 206/2/2
f 201/1/2 202/1/2 207/1/2
f 202/3/2 203/3/2 208/3/2
f 207/1/2 202/1/2 208/1/2
f 203/2/2 204/2/2 209/2/2
f 208/3/2 203/3/2 209/3/2
f 209/2/2 204/2/2 210/2/2
f 204/1/2 205/1/2 211/1/2
f 210/2/2 204/2/2 211/2/2
f 211/1/2 205/1/2 212/1/2
f 199/2/2 206/2/2 213/2/2
f 206/2/2 207/2/2 213/2/2
f 213/2/2 207/2/2 214/2/2
f 214/2/2 207/2/2 215/2/2
f 207/6/2 208/6/2 216/6/2
f 215/2/2 207/2/2 216/2/2
f 208/2/2 209/2/2 217/2/2
f 216/6/2 208/6/2 217/6/2
f 209/3/2 210/3/2 218/3/2
f 217/2/2 209/2/2 218/2/2
f 210/2/2 211/2/2 219/2/2
f 218/3/2 210/3/2 219/3/2
f 211/3/2 212/3/2 220/3/2
f 219/2/2 211/2/2 220/2/2
f 220/3/2 212/3/2 221/3/2
f 199/2/2 213/2/2 222/2/2
f 222/2/2 213/2/2 223/2/2
f 213/1/2 214/1/2 224/1/2
f 223/2/2 213/2/2 224/2/2
f 214/3/2 215/3/2 225/3/2
f 224/1/2 214/1/2 225/1/2
f 216/2/2 217/2/2 226/2/2
f 225/3/2 215/3/2 226/3/2
f 215/2/2 216/2/2 226/2/2
f 226/2/2 217/2/2 227/2/2
f 218/2/2 219/2/2 228/2/2
f 220/2/2 221/2/2 228/2/2
f 219/2/2 220/2/2 228/2/2
f 228/2/2 221/2/2 229/2/2
f 229/2/2 221/2/2 230/2/2
f 222/6/2 223/6/2 231/6/2
f 224/2/2 225/2/2 232/2/2
f 231/6/2 223/6/2 232/6/2
f 226/2/2 227/2/2 232/2/2
f 223/2/2 224/2/2 232/2/2
f 228/2/2 229/2/2 232/2/2
f 227/2/2 228/2/2 232/2/2
f 225/2/2 226/2/2 232/2/2
f 232/2/2 229/2/2 233/2/2
f 233/2/2 229/2/2 234/2/2
f 234/2/2 229/2/2 235/2/2
f 235/2/2 229/2/2 236/2/2
f 229/1/2 230/1/2 237/1/2
f 236/2/2 229/2/2 237/2/2
f 231/2/2 232/2/2 238/2/2
f 232/2/2 233/2/2 238/2/2
f 238/2/2 233/2/2 239/2/2
f 233/1/2 234/1/2 240/1/2
f 239/2/2 233/2/2 240/2/2
f 234/2/2 235/2/2 241/2/2
f 240/1/2 234/1/2 241/1/2
f 235/3/2 236/3/2 242/3/2
f 241/2/2 235/2/2 242/2/2
f 236/1/2 237/1/2 243/1/2
f 242/3/2 236/3/2 243/3/2
f 237/1/2 230/1/2 244/1/2
f 243/1/2 237/1/2 244/1/2
f 230/2/2 221/2/2 245/2/2
f 244/1/2 230/1/2 245/1/2
f 238/1/2 239/1/2 246/1/2
f 240/2/2 241/2/2 247/2/2
f 246/1/2 239/1/2 247/1/2
f 243/2/2 244/2/2 247/2/2
f 242/2/2 243/2/2 247/2/2
f 241/2/2 242/2/2 247/2/2
f 239/2/2 240/2/2 247/2/2
f 244/6/2 245/6/2 248/6/2
f 247/2/2 244/2/2 248/2/2
f 245/2/2 221/2/2 249/2/2
f 248/6/2 245/6/2 249/6/2
f 249/2/2 221/2/2 250/2/2
f 246/4/2 247/4/2 251/4/2
f 247/4/2 248/4/2 251/4/2
f 249/4/2 250/4/2 251/4/2
f 248/4/2 249/4/2 251/4/2
f 251/4/2 250/4/2 252/4/2
f 259/2/3 254/2/3 253/2/3
f 260/2/3 254/2/3 259/2/3
f 261/2/3 254/2/3 260/2/3
f 262/1/3 255/1/3 254/1/3
f 262/2/3 254/2/3 261/2/3
f 263/1/3 255/1/3 262/1/3
f 264/2/3 256/2/3 255/2/3
f 264/1/3 255/1/3 263/1/3
f 265/1/3 257/1/3 256/1/3
f 265/2/3 256/2/3 264/2/3
f 266/4/3 258/4/3 257/4/3
f 266/1/3 257/1/3 265/1/3
f 267/3/3 260/3/3 259/3/3
f 268/2/3 261/2/3 260/2/3
f 268/3/3 260/3/3 267/3/3
f 269/1/3 262/1/3 261/1/3
f 269/2/3 261/2/3 268/2/3
f 270/2/3 263/2/3 262/2/3
f 270/1/3 262/1/3 269/1/3
f 271/6/3 264/6/3 263/6/3
f 271/2/3 263/2/3 270/2/3
f 272/2/3 265/2/3 264/2/3
f 272/6/3 264/6/3 271/6/3
f 272/2/3 266/2/3 265/2/3
f 273/2/3 266/2/3 272/2/3
f 274/3/3 269/3/3 268/3/3
f 274/2/3 268/2/3 267/2/3
f 275/2/3 271/2/3 270/2/3
f 275/3/3 269/3/3 274/3/3
f 275/2/3 270/2/3 269/2/3
f 276/2/3 271/2/3 275/2/3
f 277/3/3 273/3/3 272/3/3
f 278/2/3 266/2/3 273/2/3
f 278/3/3 273/3/3 277/3/3
f 279/2/3 274/2/3 267/2/3
f 279/2/3 277/2/3 276/2/3
f 279/2/3 278/2/3 277/2/3
f 279/2/3 276/2/3 275/2/3
f 279/2/3 275/2/3 274/2/3
f 280/2/3 278/2/3 279/2/3
f 281/2/3 279/2/3 267/2/3
f 282/2/3 278/2/3 280/2/3
f 283/2/3 278/2/3 282/2/3
f 284/2/3 266/2/3 278/2/3
f 284/2/3 278/2/3 283/2/3
f 285/2/3 283/2/3 282/2/3
f 285/2/3 281/2/3 267/2/3
f 285/2/3 282/2/3 281/2/3
f 286/2/3 283/2/3 285/2/3
f 287/2/3 283/2/3 286/2/3
f 288/2/3 283/2/3 287/2/3
f 289/2/3 283/2/3 288/2/3
f 290/2/3 266/2/3 284/2/3
f 291/2/3 285/2/3 267/2/3
f 291/6/3 286/6/3 285/6/3
f 292/2/3 287/2/3 286/2/3
f 292/6/3 286/6/3 291/6/3
f 293/3/3 288/3/3 287/3/3
f 293/2/3 287/2/3 292/2/3
f 294/2/3 289/2/3 288/2/3
f 294/3/3 288/3/3 293/3/3
f 294/2/3 290/2/3 289/2/3
f 295/2/3 290/2/3 294/2/3
f 296/2/3 291/2/3 267/2/3
f 297/1/3 292/1/3 291/1/3
f 297/2/3 291/2/3 296/2/3
f 298/2/3 293/2/3 292/2/3
f 298/1/3 292/1/3 297/1/3
f 298/2/3 294/2/3 293/2/3
f 299/1/3 295/1/3 294/1/3
f 299/2/3 294/2/3 298/2/3
f 300/2/3 290/2/3 295/2/3
f 300/1/3 295/1/3 299/1/3
f 301/2/3 266/2/3 290/2/3
f 301/2/3 290/2/3 300/2/3
f 302/4/3 258/4/3 266/4/3
f 302/2/3 266/2/3 301/2/3
f 303/3/3 297/3/3 296/3/3
f 304/2/3 299/2/3 298/2/3
f 304/3/3 297/3/3 303/3/3
f 304/2/3 298/2/3 297/2/3
f 305/6/3 300/6/3 299/6/3
f 305/2/3 299/2/3 304/2/3
f 306/2/3 301/2/3 300/2/3
f 306/6/3 300/6/3 305/6/3
f 307/1/3 302/1/3 301/1/3
f 307/2/3 301/2/3 306/2/3
f 308/4/3 258/4/3 302/4/3
f 308/1/3 302/1/3 307/1/3
f 309/4/3 258/4/3 308/4/3
f 312/2/3 311/2/3 310/2/3
f 313/2/3 311/2/3 312/2/3
f 316/2/3 315/2/3 314/2/3
f 317/2/3 315/2/3 316/2/3
f 320/2/3 319/2/3 318/2/3
f 321/2/3 319/2/3 320/2/3
f 324/2/3 323/2/3 322/2/3
f 325/2/3 323/2/3 324/2/3
f 328/4/3 327/4/3 326/4/3
f 329/4/3 327/4/3 328/4/3
f 332/4/3 331/4/3 330/4/3
f 333/4/3 331/4/3 332/4/3
f 336/5/3 335/5/3 334/5/3
f 337/5/3 335/5/3 336/5/3
f 341/6/3 339/6/3 338/6/3
f 342/2/3 340/2/3 339/2/3
f 342/6/3 339/6/3 341/6/3
f 343/2/3 340/2/3 342/2/3
f 349/5/3 345/5/3 344/5/3
f 350/5/3 345/5/3 349/5/3
f 351/2/3 347/2/3 346/2/3
f 352/1/3 348/1/3 347/1/3
f 352/2/3 347/2/3 351/2/3
f 353/1/3 348/1/3 352/1/3
f 356/4/3 355/4/3 354/4/3
f 357/4/3 355/4/3 356/4/3
f 360/2/3 359/2/3 358/2/3
f 361/2/3 359/2/3 360/2/3
f 364/2/3 363/2/3 362/2/3
f 365/2/3 363/2/3 364/2/3
f 368/5/3 367/5/3 366/5/3
f 369/5/3 367/5/3 368/5/3
f 372/4/3 371/4/3 370/4/3
f 373/4/3 371/4/3 372/4/3
f 374/1/4 375/1/4 376/1/4
f 376/1/4 375/1/4 377/1/4
f 378/4/4 379/4/4 380/4/4
f 380/4/4 379/4/4 381/4/4
f 382/2/4 383/2/4 384/2/4
f 384/2/4 383/2/4 385/2/4
f 386/4/4 387/4/4 388/4/4
f 388/4/4 387/4/4 389/4/4
f 390/4/4 391/4/4 392/4/4
f 392/4/4 391/4/4 393/4/4
f 394/2/4 395/2/4 396/2/4
f 396/2/4 395/2/4 397/2/4
f 398/2/4 399/2/4 400/2/4
f 400/2/4 399/2/4 401/2/4
f 402/4/4 403/4/4 404/4/4
f 404/4/4 403/4/4 405/4/4
f 406/5/4 407/5/4 410/5/4
f 410/5/4 407/5/4 411/5/4
f 408/2/4 409/2/4 412/2/4
f 412/2/4 409/2/4 413/2/4
f 414/2/4 415/2/4 416/2/4
f 416/2/4 415/2/4 417/2/4
f 418/4/4 419/4/4 420/4/4
f 420/4/4 419/4/4 421/4/4
f 422/2/4 423/2/4 426/2/4
f 426/2/4 423/2/4 427/2/4
f 427/2/4 423/2/4 428/2/4
f 424/2/4 425/2/4 429/2/4
f 429/2/4 425/2/4 430/2/4
f 431/2/4 432/2/4 433/2/4
f 433/2/4 432/2/4 434/2/4
f 435/2/4 436/2/4 437/2/4
f 437/2/4 436/2/4 438/2/4
f 439/2/4 440/2/4 447/2/4
f 440/3/4 441/3/4 447/3/4
f 441/1/4 442/1/4 448/1/4
f 447/3/4 441/3/4 448/3/4
f 442/2/4 443/2/4 449/2/4
f 448/1/4 442/1/4 449/1/4
f 443/3/4 444/3/4 450/3/4
f 449/2/4 443/2/4 450/2/4
f 444/2/4 445/2/4 451/2/4
f 450/3/4 444/3/4 451/3/4
f 445/4/4 446/4/4 452/4/4
f 451/2/4 445/2/4 452/2/4
f 450/2/4 451/2/4 453/2/4
f 449/2/4 450/2/4 453/2/4
f 447/2/4 448/2/4 453/2/4
f 448/2/4 449/2/4 453/2/4
f 453/2/4 451/2/4 454/2/4
f 454/2/4 451/2/4 455/2/4
f 451/6/4 452/6/4 456/6/4
f 455/2/4 451/2/4 456/2/4
f 452/4/4 446/4/4 457/4/4
f 456/6/4 452/6/4 457/6/4
f 447/2/4 453/2/4 458/2/4
f 454/2/4 455/2/4 460/2/4
f 460/2/4 455/2/4 461/2/4
f 456/2/4 457/2/4 462/2/4
f 458/2/4 459/2/4 463/2/4
f 439/2/4 447/2/4 463/2/4
f 447/2/4 458/2/4 463/2/4
f 463/2/4 459/2/4 464/2/4
f 459/1/4 460/1/4 465/1/4
f 464/2/4 459/2/4 465/2/4
f 461/2/4 462/2/4 466/2/4
f 465/1/4 460/1/4 466/1/4
f 460/2/4 461/2/4 466/2/4
f 466/2/4 462/2/4 467/2/4
f 462/2/4 457/2/4 468/2/4
f 467/2/4 462/2/4 468/2/4
f 439/2/4 463/2/4 469/2/4
f 463/6/4 464/6/4 469/6/4
f 464/2/4 465/2/4 470/2/4
f 469/6/4 464/6/4 470/6/4
f 466/2/4 467/2/4 470/2/4
f 465/2/4 466/2/4 470/2/4
f 470/2/4 467/2/4 471/2/4
f 467/6/4 468/6/4 472/6/4
f 471/2/4 467/2/4 472/2/4
f 468/2/4 457/2/4 473/2/4
f 472/6/4 468/6/4 473/6/4
f 439/2/4 469/2/4 474/2/4
f 469/2/4 470/2/4 474/2/4
f 470/3/4 471/3/4 475/3/4
f 474/2/4 470/2/4 475/2/4
f 471/2/4 472/2/4 476/2/4
f 475/3/4 471/3/4 476/3/4
f 472/3/4 473/3/4 477/3/4
f 476/2/4 472/2/4 477/2/4
f 473/2/4 457/2/4 478/2/4
f 477/3/4 473/3/4 478/3/4
f 439/2/4 474/2/4 479/2/4
f 474/1/4 475/1/4 479/1/4
f 476/2/4 477/2/4 480/2/4
f 479/1/4 475/1/4 480/1/4
f 475/2/4 476/2/4 480/2/4
f 480/2/4 477/2/4 481/2/4
f 477/1/4 478/1/4 482/1/4
f 481/2/4 477/2/4 482/2/4
f 478/2/4 457/2/4 483/2/4
f 482/1/4 478/1/4 483/1/4
f 457/4/4 446/4/4 484/4/4
f 483/2/4 457/2/4 484/2/4
f 479/2/4 480/2/4 485/2/4
f 482/2/4 483/2/4 486/2/4
f 481/2/4 482/2/4 486/2/4
f 486/2/4 483/2/4 487/2/4
f 487/2/4 483/2/4 488/2/4
f 483/3/4 484/3/4 489/3/4
f 488/2/4 483/2/4 489/2/4
f 484/4/4 446/4/4 490/4/4
f 489/3/4 484/3/4 490/3/4
f 479/2/4 485/2/4 491/2/4
f 439/2/4 479/2/4 491/2/4
f 486/2/4 487/2/4 491/2/4
f 485/2/4 486/2/4 491/2/4
f 491/2/4 487/2/4 492/2/4
f 492/2/4 487/2/4 493/2/4
f 487/1/4 488/1/4 494/1/4
f 493/2/4 487/2/4 494/2/4
f 488/2/4 489/2/4 495/2/4
f 494/1/4 488/1/4 495/1/4
f 495/2/4 489/2/4 496/2/4
f 490/4/4 446/4/4 497/4/4
f 439/2/4 491/2/4 498/2/4
f 491/1/4 492/1/4 499/1/4
f 498/2/4 491/2/4 499/2/4
f 492/3/4 493/3/4 500/3/4
f 499/1/4 492/1/4 500/1/4
f 495/2/4 496/2/4 501/2/4
f 500/3/4 493/3/4 501/3/4
f 493/2/4 494/2/4 501/2/4
f 496/2/4 497/2/4 501/2/4
f 494/2/4 495/2/4 501/2/4
f 497/4/4 446/4/4 502/4/4
f 501/2/4 497/2/4 502/2/4
f 502/4/4 446/4/4 503/4/4
f 509/2/5 505/2/5 504/2/5
f 509/3/5 506/3/5 505/3/5
f 510/2/5 507/2/5 506/2/5
f 510/3/5 506/3/5 509/3/5
f 511/3/5 508/3/5 507/3/5
f 511/2/5 507/2/5 510/2/5
f 512/3/5 508/3/5 511/3/5
f 513/2/5 510/2/5 509/2/5
f 513/2/5 509/2/5 504/2/5
f 513/2/5 512/2/5 511/2/5
f 513/2/5 511/2/5 510/2/5
f 514/2/5 512/2/5 513/2/5
f 515/6/5 514/6/5 513/6/5
f 516/2/5 512/2/5 514/2/5
f 516/6/5 514/6/5 515/6/5
f 517/2/5 512/2/5 516/2/5
f 518/2/5 512/2/5 517/2/5
f 519/2/5 516/2/5 515/2/5
f 519/2/5 517/2/5 516/2/5
f 521/2/5 519/2/5 515/2/5
f 521/2/5 520/2/5 519/2/5
f 522/2/5 520/2/5 521/2/5
f 525/2/5 524/2/5 523/2/5
f 526/2/5 524/2/5 525/2/5
f 529/2/5 528/2/5 527/2/5
f 530/2/5 528/2/5 529/2/5
f 533/2/5 532/2/5 531/2/5
f 534/2/5 532/2/5 533/2/5
f 537/2/5 536/2/5 535/2/5
f 538/2/5 536/2/5 537/2/5
f 541/2/5 540/2/5 539/2/5
f 542/2/5 540/2/5 541/2/5
f 545/2/5 544/2/5 543/2/5
f 546/2/5 544/2/5 545/2/5
f 549/2/5 548/2/5 547/2/5
f 550/2/5 548/2/5 549/2/5
f 555/3/5 552/3/5 551/3/5
f 556/3/5 552/3/5 555/3/5
f 557/2/5 554/2/5 553/2/5
f 558/2/5 554/2/5 557/2/5
f 561/3/5 560/3/5 559/3/5
f 562/3/5 560/3/5 561/3/5
f 565/2/5 564/2/5 563/2/5
f 566/2/5 564/2/5 565/2/5
f 569/2/5 568/2/5 567/2/5
f 570/2/5 568/2/5 569/2/5
f 573/4/5 572/4/5 571/4/5
f 574/4/5 572/4/5 573/4/5
f 575/2/6 576/2/6 577/2/6
f 577/2/6 576/2/6 578/2/6
f 579/2/6 580/2/6 581/2/6
f 581/2/6 580/2/6 582/2/6
f 583/2/6 584/2/6 587/2/6
f 587/2/6 584/2/6 588/2/6
f 585/2/6 586/2/6 589/2/6
f 589/2/6 586/2/6 590/2/6
f 591/2/6 592/2/6 593/2/6
f 593/2/6 592/2/6 594/2/6
f 595/2/6 596/2/6 597/2/6
f 597/2/6 596/2/6 598/2/6
f 599/2/6 600/2/6 603/2/6
f 603/2/6 600/2/6 604/2/6
f 601/3/6 602/3/6 605/3/6
f 605/3/6 602/3/6 606/3/6
f 607/2/6 608/2/6 609/2/6
f 609/2/6 608/2/6 610/2/6
f 611/2/6 612/2/6 613/2/6
f 613/2/6 612/2/6 614/2/6
f 615/2/6 616/2/6 617/2/6
f 617/2/6 616/2/6 618/2/6
f 619/4/6 620/4/6 621/4/6
f 621/4/6 620/4/6 622/4/6
f 622/4/6 620/4/6 623/4/6
f 623/4/6 620/4/6 624/4/6
f 624/4/6 620/4/6 625/4/6
f 625/4/6 620/4/6 626/4/6
f 619/4/6 621/4/6 627/4/6
f 622/4/6 623/4/6 628/4/6
f 623/5/6 624/5/6 629/5/6
f 628/4/6 623/4/6 629/4/6
f 624/4/6 625/4/6 630/4/6
f 629/5/6 624/5/6 630/5/6
f 630/4/6 625/4/6 631/4/6
f 631/4/6 625/4/6 632/4/6
f 632/4/6 625/4/6 633/4/6
f 628/4/6 629/4/6 635/4/6
f 627/4/6 628/4/6 635/4/6
f 629/4/6 630/4/6 635/4/6
f 631/4/6 632/4/6 636/4/6
f 632/5/6 633/5/6 637/5/6
f 636/4/6 632/4/6 637/4/6
f 633/4/6 634/4/6 638/4/6
f 637/5/6 633/5/6 638/5/6
f 627/4/6 635/4/6 639/4/6
f 636/4/6 637/4/6 640/4/6
f 637/4/6 638/4/6 640/4/6
f 638/4/6 634/4/6 641/4/6
f 640/4/6 638/4/6 641/4/6
f 641/4/6 634/4/6 642/4/6
f 627/4/6 639/4/6 643/4/6
f 639/4/6 640/4/6 643/4/6
f 640/4/6 641/4/6 643/4/6
f 643/4/6 641/4/6 644/4/6
f 644/4/6 641/4/6 645/4/6
f 645/4/6 641/4/6 646/4/6
f 627/4/6 643/4/6 648/4/6
f 643/5/6 644/5/6 648/5/6
f 644/4/6 645/4/6 649/4/6
f 648/5/6 644/5/6 649/5/6
f 649/4/6 645/4/6 650/4/6
f 619/4/6 627/4/6 651/4/6
f 627/4/6 648/4/6 651/4/6
f 648/4/6 649/4/6 651/4/6
f 651/4/6 649/4/6 652/4/6
f 652/4/6 649/4/6 653/4/6
f 650/4/6 645/4/6 654/4/6
f 645/5/6 646/5/6 655/5/6
f 654/4/6 645/4/6 655/4/6
f 646/4/6 647/4/6 656/4/6
f 655/5/6 646/5/6 656/5/6
f 652/4/6 653/4/6 657/4/6
f 654/4/6 655/4/6 657/4/6
f 655/4/6 656/4/6 657/4/6
f 653/4/6 654/4/6 657/4/6
f 656/4/6 647/4/6 658/4/6
f 657/4/6 656/4/6 658/4/6
f 659/4/6 660/4/6 661/4/6
f 661/4/6 660/4/6 662/4/6
f 662/4/6 660/4/6 666/4/6
f 663/4/6 664/4/6 667/4/6
f 667/4/6 664/4/6 668/4/6
f 665/4/6 666/4/6 671/4/6
f 666/4/6 660/4/6 672/4/6
f 671/4/6 666/4/6 672/4/6
f 669/5/6 670/5/6 673/5/6
f 673/5/6 670/5/6 674/5/6
f 673/4/6 674/4/6 675/4/6
f 675/4/6 674/4/6 676/4/6
f 672/4/6 660/4/6 678/4/6
f 677/5/6 678/5/6 679/5/6
f 678/4/6 660/4/6 680/4/6
f 679/5/6 678/5/6 680/5/6
f 659/4/6 661/4/6 683/4/6
f 681/4/6 682/4/6 685/4/6
f 685/4/6 682/4/6 686/4/6
f 683/5/6 684/5/6 687/5/6
f 659/4/6 683/4/6 687/4/6
f 687/5/6 684/5/6 688/5/6
f 680/4/6 660/4/6 689/4/6
f 687/4/6 688/4/6 690/4/6
f 688/4/6 689/4/6 690/4/6
f 659/4/6 687/4/6 690/4/6
f 689/4/6 660/4/6 691/4/6
f 690/4/6 689/4/6 691/4/6
