# MagicaVoxel @ Ephtracy

# group
g Obj_MagneticRock-1

# material
mtllib Obj_MagneticRock-1.mtl
usemtl palette

# normals
vn -1 0 0
vn 1 0 0
vn 0 0 1
vn 0 0 -1
vn 0 -1 0
vn 0 1 0

# texcoords
vt 0.705078 0.5
vt 0.978516 0.5
vt 0.986328 0.5

# verts
v -3 2 0.5
v -3 2 -0.5
v -3 8 0.5
v -3 8 -0.5
v 3 2 0.5
v 3 2 -0.5
v 3 8 0.5
v 3 8 -0.5
v -3 2 0.5
v -3 8 0.5
v -2 3 0.5
v -2 7 0.5
v -1 4 0.5
v -1 6 0.5
v 1 4 0.5
v 1 6 0.5
v 2 3 0.5
v 2 7 0.5
v 3 2 0.5
v 3 8 0.5
v -3 2 -0.5
v -3 8 -0.5
v -2 3 -0.5
v -2 7 -0.5
v -1 4 -0.5
v -1 6 -0.5
v 1 4 -0.5
v 1 6 -0.5
v 2 3 -0.5
v 2 7 -0.5
v 3 2 -0.5
v 3 8 -0.5
v -3 2 0.5
v 3 2 0.5
v -3 2 -0.5
v 3 2 -0.5
v -3 8 0.5
v 3 8 0.5
v -3 8 -0.5
v 3 8 -0.5

# faces
f 3/2/1 2/2/1 1/2/1
f 4/2/1 2/2/1 3/2/1
f 5/2/2 6/2/2 7/2/2
f 7/2/2 6/2/2 8/2/2
f 11/2/3 10/2/3 9/2/3
f 12/2/3 10/2/3 11/2/3
f 13/3/3 12/3/3 11/3/3
f 14/3/3 12/3/3 13/3/3
f 15/3/3 13/3/3 11/3/3
f 15/1/3 14/1/3 13/1/3
f 16/3/3 12/3/3 14/3/3
f 16/1/3 14/1/3 15/1/3
f 17/2/3 11/2/3 9/2/3
f 17/3/3 15/3/3 11/3/3
f 17/3/3 16/3/3 15/3/3
f 18/3/3 12/3/3 16/3/3
f 18/3/3 16/3/3 17/3/3
f 18/2/3 10/2/3 12/2/3
f 19/2/3 17/2/3 9/2/3
f 19/2/3 18/2/3 17/2/3
f 20/2/3 10/2/3 18/2/3
f 20/2/3 18/2/3 19/2/3
f 21/2/4 22/2/4 23/2/4
f 23/2/4 22/2/4 24/2/4
f 23/3/4 24/3/4 25/3/4
f 25/3/4 24/3/4 26/3/4
f 23/3/4 25/3/4 27/3/4
f 25/1/4 26/1/4 27/1/4
f 26/3/4 24/3/4 28/3/4
f 27/1/4 26/1/4 28/1/4
f 21/2/4 23/2/4 29/2/4
f 23/3/4 27/3/4 29/3/4
f 27/3/4 28/3/4 29/3/4
f 28/3/4 24/3/4 30/3/4
f 29/3/4 28/3/4 30/3/4
f 24/2/4 22/2/4 30/2/4
f 21/2/4 29/2/4 31/2/4
f 29/2/4 30/2/4 31/2/4
f 30/2/4 22/2/4 32/2/4
f 31/2/4 30/2/4 32/2/4
f 35/2/5 34/2/5 33/2/5
f 36/2/5 34/2/5 35/2/5
f 37/2/6 38/2/6 39/2/6
f 39/2/6 38/2/6 40/2/6
